<mxfile host="drawio-plugin" modified="2023-04-09T12:51:26.787Z" agent="5.0 (Windows NT 6.2; Win64; x64) AppleWebKit/537.36 (KHTML, like Gecko) Chrome/104.0.5112.102 Safari/537.36" etag="cYy72szeNH447_VWnjQf" version="20.5.3" type="embed"><diagram id="rB-EX8yL6H377CCAqbBc" name="Page-1"><mxGraphModel dx="1017" dy="1871" grid="1" gridSize="10" guides="1" tooltips="1" connect="1" arrows="1" fold="1" page="1" pageScale="1" pageWidth="850" pageHeight="1100" math="0" shadow="0"><root><mxCell id="0"/><mxCell id="1" parent="0"/><mxCell id="LfYPJMxlurikJE-AyuLz-9" value="Action" style="edgeStyle=orthogonalEdgeStyle;rounded=0;orthogonalLoop=1;jettySize=auto;html=1;exitX=0.5;exitY=0;exitDx=0;exitDy=0;entryX=0.5;entryY=1;entryDx=0;entryDy=0;" parent="1" source="LfYPJMxlurikJE-AyuLz-1" target="LfYPJMxlurikJE-AyuLz-2" edge="1"><mxGeometry relative="1" as="geometry"/></mxCell><mxCell id="LfYPJMxlurikJE-AyuLz-1" value="Grass Clump" style="rounded=1;whiteSpace=wrap;html=1;" parent="1" vertex="1"><mxGeometry x="80" y="400" width="120" height="60" as="geometry"/></mxCell><mxCell id="LfYPJMxlurikJE-AyuLz-15" value="SetText()" style="edgeStyle=orthogonalEdgeStyle;rounded=0;orthogonalLoop=1;jettySize=auto;html=1;exitX=0.5;exitY=0;exitDx=0;exitDy=0;entryX=0.5;entryY=1;entryDx=0;entryDy=0;" parent="1" source="LfYPJMxlurikJE-AyuLz-2" target="LfYPJMxlurikJE-AyuLz-14" edge="1"><mxGeometry relative="1" as="geometry"/></mxCell><mxCell id="LfYPJMxlurikJE-AyuLz-2" value="Grass Controller" style="rounded=1;whiteSpace=wrap;html=1;" parent="1" vertex="1"><mxGeometry x="80" y="280" width="120" height="60" as="geometry"/></mxCell><mxCell id="LfYPJMxlurikJE-AyuLz-3" value="Grass Clump" style="rounded=1;whiteSpace=wrap;html=1;" parent="1" vertex="1"><mxGeometry x="90" y="410" width="120" height="60" as="geometry"/></mxCell><mxCell id="LfYPJMxlurikJE-AyuLz-4" value="Grass Clump" style="rounded=1;whiteSpace=wrap;html=1;" parent="1" vertex="1"><mxGeometry x="100" y="420" width="120" height="60" as="geometry"/></mxCell><mxCell id="LfYPJMxlurikJE-AyuLz-19" value="TakeDamage()" style="edgeStyle=orthogonalEdgeStyle;rounded=0;orthogonalLoop=1;jettySize=auto;html=1;exitX=0.5;exitY=0;exitDx=0;exitDy=0;entryX=0.5;entryY=1;entryDx=0;entryDy=0;" parent="1" source="LfYPJMxlurikJE-AyuLz-5" target="LfYPJMxlurikJE-AyuLz-16" edge="1"><mxGeometry relative="1" as="geometry"/></mxCell><mxCell id="LfYPJMxlurikJE-AyuLz-5" value="Flower Controller" style="rounded=1;whiteSpace=wrap;html=1;" parent="1" vertex="1"><mxGeometry x="320" y="280" width="120" height="60" as="geometry"/></mxCell><mxCell id="LfYPJMxlurikJE-AyuLz-10" value="Action" style="edgeStyle=orthogonalEdgeStyle;rounded=0;orthogonalLoop=1;jettySize=auto;html=1;exitX=0.5;exitY=0;exitDx=0;exitDy=0;entryX=0.5;entryY=1;entryDx=0;entryDy=0;" parent="1" source="LfYPJMxlurikJE-AyuLz-6" target="LfYPJMxlurikJE-AyuLz-5" edge="1"><mxGeometry relative="1" as="geometry"/></mxCell><mxCell id="LfYPJMxlurikJE-AyuLz-6" value="Flower" style="rounded=1;whiteSpace=wrap;html=1;" parent="1" vertex="1"><mxGeometry x="320" y="400" width="120" height="60" as="geometry"/></mxCell><mxCell id="LfYPJMxlurikJE-AyuLz-7" value="Flower" style="rounded=1;whiteSpace=wrap;html=1;" parent="1" vertex="1"><mxGeometry x="330" y="410" width="120" height="60" as="geometry"/></mxCell><mxCell id="LfYPJMxlurikJE-AyuLz-8" value="Flower" style="rounded=1;whiteSpace=wrap;html=1;" parent="1" vertex="1"><mxGeometry x="340" y="420" width="120" height="60" as="geometry"/></mxCell><mxCell id="LfYPJMxlurikJE-AyuLz-12" value="Cut()" style="edgeStyle=orthogonalEdgeStyle;rounded=0;orthogonalLoop=1;jettySize=auto;html=1;exitX=0;exitY=0.5;exitDx=0;exitDy=0;entryX=0.5;entryY=1;entryDx=0;entryDy=0;" parent="1" source="LfYPJMxlurikJE-AyuLz-11" target="LfYPJMxlurikJE-AyuLz-8" edge="1"><mxGeometry x="-0.0909" relative="1" as="geometry"><mxPoint as="offset"/></mxGeometry></mxCell><mxCell id="LfYPJMxlurikJE-AyuLz-13" value="Cut()" style="edgeStyle=orthogonalEdgeStyle;rounded=0;orthogonalLoop=1;jettySize=auto;html=1;exitX=0;exitY=0.75;exitDx=0;exitDy=0;entryX=0.5;entryY=1;entryDx=0;entryDy=0;" parent="1" source="LfYPJMxlurikJE-AyuLz-11" target="LfYPJMxlurikJE-AyuLz-4" edge="1"><mxGeometry x="-0.7402" relative="1" as="geometry"><mxPoint as="offset"/></mxGeometry></mxCell><mxCell id="LfYPJMxlurikJE-AyuLz-11" value="Mower Controller" style="rounded=1;whiteSpace=wrap;html=1;" parent="1" vertex="1"><mxGeometry x="480" y="480" width="120" height="60" as="geometry"/></mxCell><mxCell id="LfYPJMxlurikJE-AyuLz-21" value="LevelWon()" style="edgeStyle=orthogonalEdgeStyle;rounded=0;orthogonalLoop=1;jettySize=auto;html=1;exitX=0.5;exitY=0;exitDx=0;exitDy=0;entryX=0.5;entryY=1;entryDx=0;entryDy=0;" parent="1" source="LfYPJMxlurikJE-AyuLz-14" target="LfYPJMxlurikJE-AyuLz-20" edge="1"><mxGeometry relative="1" as="geometry"/></mxCell><mxCell id="LfYPJMxlurikJE-AyuLz-14" value="Grass UI" style="rounded=1;whiteSpace=wrap;html=1;" parent="1" vertex="1"><mxGeometry x="80" y="160" width="120" height="60" as="geometry"/></mxCell><mxCell id="LfYPJMxlurikJE-AyuLz-18" style="edgeStyle=orthogonalEdgeStyle;rounded=0;orthogonalLoop=1;jettySize=auto;html=1;exitX=0.5;exitY=0;exitDx=0;exitDy=0;entryX=0.5;entryY=1;entryDx=0;entryDy=0;" parent="1" source="LfYPJMxlurikJE-AyuLz-16" target="LfYPJMxlurikJE-AyuLz-17" edge="1"><mxGeometry relative="1" as="geometry"/></mxCell><mxCell id="LfYPJMxlurikJE-AyuLz-16" value="Player Health Component" style="rounded=1;whiteSpace=wrap;html=1;" parent="1" vertex="1"><mxGeometry x="320" y="160" width="120" height="60" as="geometry"/></mxCell><mxCell id="LfYPJMxlurikJE-AyuLz-22" value="PlayerDied()" style="edgeStyle=orthogonalEdgeStyle;rounded=0;orthogonalLoop=1;jettySize=auto;html=1;exitX=0.5;exitY=0;exitDx=0;exitDy=0;entryX=1;entryY=0.5;entryDx=0;entryDy=0;" parent="1" source="LfYPJMxlurikJE-AyuLz-17" target="LfYPJMxlurikJE-AyuLz-20" edge="1"><mxGeometry relative="1" as="geometry"/></mxCell><mxCell id="LfYPJMxlurikJE-AyuLz-17" value="Health UI" style="rounded=1;whiteSpace=wrap;html=1;" parent="1" vertex="1"><mxGeometry x="320" y="40" width="120" height="60" as="geometry"/></mxCell><mxCell id="LfYPJMxlurikJE-AyuLz-20" value="Game Controller" style="rounded=1;whiteSpace=wrap;html=1;" parent="1" vertex="1"><mxGeometry x="80" y="-20" width="120" height="60" as="geometry"/></mxCell></root></mxGraphModel></diagram></mxfile>